# xmcd
#
# Track frame offsets: 
#        150
#        16862
#        30882
#        43272
#        61947
#        81451
#        100021
#        124217
#        141416
#        150971
#        168774
#        179754
#        220314
#
# Disc length: 3336 seconds
#
# Revision: 0
# Processed by: cddbd v1.5.2PL0 Copyright (c) Steve Scherf et al.
# Submitted via: ExactAudioCopy v0.99pb4
#
DISCID=a90d060d
DTITLE=Sammy Decoster - Tucumcari
DYEAR=2009
DGENRE=Folk/Rock
TTITLE0=Tucumcari
TTITLE1=L'homme que je ne suis pas
TTITLE2=Je partirai me suicider à Hawai
TTITLE3=Savannah Bay
TTITLE4=Mon dernier rêve
TTITLE5=L'exil
TTITLE6=Dernier rendez-vous
TTITLE7=The drive
TTITLE8=Je ne t'ai pas dit adieu
TTITLE9=Venaco
TTITLE10=Manana
TTITLE11=Tu ma hantes
TTITLE12=Data
EXTD=
EXTT0=
EXTT1=
EXTT2=
EXTT3=
EXTT4=
EXTT5=
EXTT6=
EXTT7=
EXTT8=
EXTT9=
EXTT10=
EXTT11=
EXTT12=
PLAYORDER=
